<svg width="19" height="18" viewBox="0 0 19 18" fill="none" xmlns="http://www.w3.org/2000/svg">
<path d="M8.16746 13.7154H3.01315" stroke="white" stroke-width="1.5" stroke-linecap="round" stroke-linejoin="round"/>
<path fill-rule="evenodd" clip-rule="evenodd" d="M16.0055 13.7155C16.0055 14.8487 15.0868 15.7675 13.9535 15.7675C12.8202 15.7675 11.9015 14.8487 11.9015 13.7155C11.9015 12.5813 12.8202 11.6635 13.9535 11.6635C15.0868 11.6635 16.0055 12.5813 16.0055 13.7155Z" stroke="white" stroke-width="1.5" stroke-linecap="round" stroke-linejoin="round"/>
<path d="M10.8504 5.36174H16.0055" stroke="white" stroke-width="1.5" stroke-linecap="round" stroke-linejoin="round"/>
<path fill-rule="evenodd" clip-rule="evenodd" d="M3.01282 5.36175C3.01282 6.49589 3.93152 7.41375 5.06482 7.41375C6.19811 7.41375 7.11682 6.49589 7.11682 5.36175C7.11682 4.22846 6.19811 3.30975 5.06482 3.30975C3.93152 3.30975 3.01282 4.22846 3.01282 5.36175Z" stroke="white" stroke-width="1.5" stroke-linecap="round" stroke-linejoin="round"/>
</svg>
