<svg width="89" height="16" viewBox="0 0 89 16" fill="none" xmlns="http://www.w3.org/2000/svg">
<path d="M6.23672 0.96C7.71672 0.96 9.01005 1.25333 10.1167 1.84C11.2234 2.42667 12.0767 3.25333 12.6767 4.32C13.2901 5.37333 13.5967 6.59333 13.5967 7.98C13.5967 9.35333 13.2901 10.5733 12.6767 11.64C12.0767 12.7067 11.2167 13.5333 10.0967 14.12C8.99005 14.7067 7.70338 15 6.23672 15H0.976717V0.96H6.23672ZM6.01672 12.04C7.31005 12.04 8.31672 11.6867 9.03672 10.98C9.75672 10.2733 10.1167 9.27333 10.1167 7.98C10.1167 6.68667 9.75672 5.68 9.03672 4.96C8.31672 4.24 7.31005 3.88 6.01672 3.88H4.39672V12.04H6.01672ZM18.828 0.96V15H15.408V0.96H18.828ZM29.8064 15L26.9464 10.7L24.4264 15H20.5464L25.0464 7.86L20.4464 0.96H24.4264L27.2464 5.2L29.7264 0.96H33.6064L29.1464 8.04L33.7864 15H29.8064Z" fill="#00337C"/>
<path d="M40.4833 15.14C39.4566 15.14 38.5366 14.9733 37.7233 14.64C36.9099 14.3067 36.2566 13.8133 35.7633 13.16C35.2833 12.5067 35.0299 11.72 35.0033 10.8H38.6433C38.6966 11.32 38.8766 11.72 39.1833 12C39.4899 12.2667 39.8899 12.4 40.3833 12.4C40.8899 12.4 41.2899 12.2867 41.5833 12.06C41.8766 11.82 42.0233 11.4933 42.0233 11.08C42.0233 10.7333 41.9033 10.4467 41.6633 10.22C41.4366 9.99333 41.1499 9.80667 40.8033 9.66C40.4699 9.51333 39.9899 9.34667 39.3633 9.16C38.4566 8.88 37.7166 8.6 37.1433 8.32C36.5699 8.04 36.0766 7.62667 35.6633 7.08C35.2499 6.53333 35.0433 5.82 35.0433 4.94C35.0433 3.63333 35.5166 2.61333 36.4633 1.88C37.4099 1.13333 38.6433 0.76 40.1633 0.76C41.7099 0.76 42.9566 1.13333 43.9033 1.88C44.8499 2.61333 45.3566 3.64 45.4233 4.96H41.7233C41.6966 4.50667 41.5299 4.15333 41.2233 3.9C40.9166 3.63333 40.5233 3.5 40.0433 3.5C39.6299 3.5 39.2966 3.61333 39.0433 3.84C38.7899 4.05333 38.6633 4.36667 38.6633 4.78C38.6633 5.23333 38.8766 5.58667 39.3033 5.84C39.7299 6.09333 40.3966 6.36667 41.3033 6.66C42.2099 6.96667 42.9433 7.26 43.5033 7.54C44.0766 7.82 44.5699 8.22667 44.9833 8.76C45.3966 9.29333 45.6033 9.98 45.6033 10.82C45.6033 11.62 45.3966 12.3467 44.9833 13C44.5833 13.6533 43.9966 14.1733 43.2233 14.56C42.4499 14.9467 41.5366 15.14 40.4833 15.14ZM59.768 0.96V15H56.348V9.22H51.028V15H47.608V0.96H51.028V6.46H56.348V0.96H59.768ZM68.7769 15.14C67.4569 15.14 66.2435 14.8333 65.1369 14.22C64.0435 13.6067 63.1702 12.7533 62.5169 11.66C61.8769 10.5533 61.5569 9.31333 61.5569 7.94C61.5569 6.56667 61.8769 5.33333 62.5169 4.24C63.1702 3.14667 64.0435 2.29333 65.1369 1.68C66.2435 1.06667 67.4569 0.76 68.7769 0.76C70.0969 0.76 71.3035 1.06667 72.3969 1.68C73.5035 2.29333 74.3702 3.14667 74.9969 4.24C75.6369 5.33333 75.9569 6.56667 75.9569 7.94C75.9569 9.31333 75.6369 10.5533 74.9969 11.66C74.3569 12.7533 73.4902 13.6067 72.3969 14.22C71.3035 14.8333 70.0969 15.14 68.7769 15.14ZM68.7769 12.02C69.8969 12.02 70.7902 11.6467 71.4569 10.9C72.1369 10.1533 72.4769 9.16667 72.4769 7.94C72.4769 6.7 72.1369 5.71333 71.4569 4.98C70.7902 4.23333 69.8969 3.86 68.7769 3.86C67.6435 3.86 66.7369 4.22667 66.0569 4.96C65.3902 5.69333 65.0569 6.68667 65.0569 7.94C65.0569 9.18 65.3902 10.1733 66.0569 10.92C66.7369 11.6533 67.6435 12.02 68.7769 12.02ZM88.4595 5.48C88.4595 6.29333 88.2729 7.04 87.8995 7.72C87.5262 8.38667 86.9529 8.92667 86.1795 9.34C85.4062 9.75333 84.4462 9.96 83.2995 9.96H81.1795V15H77.7595V0.96H83.2995C84.4195 0.96 85.3662 1.15333 86.1395 1.54C86.9129 1.92667 87.4929 2.46 87.8795 3.14C88.2662 3.82 88.4595 4.6 88.4595 5.48ZM83.0395 7.24C83.6929 7.24 84.1795 7.08667 84.4995 6.78C84.8195 6.47333 84.9795 6.04 84.9795 5.48C84.9795 4.92 84.8195 4.48667 84.4995 4.18C84.1795 3.87333 83.6929 3.72 83.0395 3.72H81.1795V7.24H83.0395Z" fill="#0069FF"/>
</svg>
